<svg width="14" height="14" viewBox="0 0 14 14" fill="none" xmlns="http://www.w3.org/2000/svg">
<g clip-path="url(#clip0_1_903)">
<path d="M13.62 0.153107C13.8961 0.344514 14.0411 0.675373 13.9891 1.00623L12.2391 12.3812C12.1981 12.6465 12.0368 12.8789 11.8016 13.0101C11.5664 13.1414 11.2848 13.1578 11.036 13.0539L7.76567 11.6949L5.89262 13.7211C5.64926 13.9863 5.26645 14.0738 4.93012 13.9426C4.59379 13.8113 4.37504 13.4859 4.37504 13.125V10.839C4.37504 10.7297 4.41606 10.6258 4.48988 10.5465L9.0727 5.5453C9.23129 5.37303 9.22582 5.1078 9.06176 4.94373C8.8977 4.77967 8.63246 4.76873 8.4602 4.92459L2.89848 9.86561L0.484025 8.65701C0.194181 8.51209 0.00824378 8.22225 4.06595e-05 7.89959C-0.00816247 7.57694 0.161369 7.27615 0.440275 7.11483L12.6903 0.114826C12.9829 -0.0519706 13.3438 -0.0355644 13.62 0.153107Z" fill="white"/>
</g>
<defs>
<clipPath id="clip0_1_903">
<path d="M0 0H14V14H0V0Z" fill="white"/>
</clipPath>
</defs>
</svg>
