<svg width="14" height="14" viewBox="0 0 14 14" fill="none" xmlns="http://www.w3.org/2000/svg">
<g clip-path="url(#clip0_1_906)">
<path d="M12.8953 0.593408C12.2965 -0.00541993 11.3285 -0.00541993 10.7297 0.593408L9.90664 1.41372L12.5836 4.09067L13.4066 3.26763C14.0055 2.6688 14.0055 1.70083 13.4066 1.102L12.8953 0.593408ZM4.71406 6.60903C4.54727 6.77583 4.41875 6.98091 4.34492 7.20786L3.53555 9.63599C3.45625 9.87114 3.51914 10.1309 3.69414 10.3086C3.86914 10.4864 4.12891 10.5465 4.3668 10.4672L6.79492 9.65786C7.01914 9.58403 7.22422 9.45552 7.39375 9.28872L11.9684 4.71138L9.28867 2.03169L4.71406 6.60903ZM2.625 1.75005C1.17578 1.75005 0 2.92583 0 4.37505V11.375C0 12.8243 1.17578 14 2.625 14H9.625C11.0742 14 12.25 12.8243 12.25 11.375V8.75005C12.25 8.26606 11.859 7.87505 11.375 7.87505C10.891 7.87505 10.5 8.26606 10.5 8.75005V11.375C10.5 11.859 10.109 12.25 9.625 12.25H2.625C2.14102 12.25 1.75 11.859 1.75 11.375V4.37505C1.75 3.89106 2.14102 3.50005 2.625 3.50005H5.25C5.73398 3.50005 6.125 3.10903 6.125 2.62505C6.125 2.14106 5.73398 1.75005 5.25 1.75005H2.625Z" fill="#64748B"/>
</g>
<defs>
<clipPath id="clip0_1_906">
<path d="M0 0H14V14H0V0Z" fill="white"/>
</clipPath>
</defs>
</svg>
