<svg width="16" height="18" viewBox="0 0 16 18" fill="none" xmlns="http://www.w3.org/2000/svg">
<g clip-path="url(#clip0_1_225)">
<path d="M5.60039 0.189847C5.87461 -0.0667939 6.3 -0.0632783 6.57422 0.193362C7.54453 1.10391 8.45508 2.08477 9.30586 3.14649C9.69258 2.64024 10.132 2.08828 10.6066 1.63828C10.8844 1.37813 11.3133 1.37813 11.591 1.6418C12.8074 2.80196 13.8375 4.33477 14.5617 5.79024C15.2754 7.22461 15.75 8.69063 15.75 9.72422C15.75 14.2102 12.2414 18 7.875 18C3.45938 18 0 14.2066 0 9.72071C0 8.37071 0.625781 6.72188 1.59609 5.09063C2.57695 3.43477 3.96211 1.7086 5.60039 0.189847ZM7.93477 14.625C8.82422 14.625 9.61172 14.3789 10.3535 13.8867C11.8336 12.8531 12.2309 10.7859 11.3414 9.16172C11.1832 8.84532 10.7789 8.82422 10.5504 9.09141L9.66445 10.1215C9.43242 10.3887 9.01406 10.3816 8.79609 10.1039C8.21602 9.36563 7.17891 8.04727 6.58828 7.29844C6.3668 7.01719 5.94492 7.01367 5.71992 7.29492C4.53164 8.78907 3.93398 9.73125 3.93398 10.7895C3.9375 13.1977 5.71641 14.625 7.93477 14.625Z" fill="#1F2937"/>
</g>
<defs>
<clipPath id="clip0_1_225">
<path d="M0 0H15.75V18H0V0Z" fill="white"/>
</clipPath>
</defs>
</svg>
