<svg width="12" height="12" viewBox="0 0 12 12" fill="none" xmlns="http://www.w3.org/2000/svg">
<g clip-path="url(#clip0_1_352)">
<path d="M12 5.625C12 8.31797 9.31403 10.5 5.99996 10.5C5.13043 10.5 4.30543 10.35 3.56012 10.0805C3.28121 10.2844 2.82653 10.5633 2.28746 10.7977C1.72496 11.0414 1.04762 11.25 0.374963 11.25C0.222619 11.25 0.0866814 11.1586 0.0280876 11.018C-0.0305061 10.8773 0.00230636 10.718 0.107775 10.6102L0.114806 10.6031C0.121838 10.5961 0.131213 10.5867 0.145275 10.5703C0.171056 10.5422 0.2109 10.4977 0.260119 10.4367C0.356213 10.3195 0.485119 10.1461 0.616369 9.93047C0.850744 9.54141 1.0734 9.03047 1.11793 8.45625C0.414806 7.65937 -3.73805e-05 6.68203 -3.73805e-05 5.625C-3.73805e-05 2.93203 2.6859 0.75 5.99996 0.75C9.31403 0.75 12 2.93203 12 5.625Z" fill="#06B6D4"/>
</g>
<defs>
<clipPath id="clip0_1_352">
<path d="M0 0H12V12H0V0Z" fill="white"/>
</clipPath>
</defs>
</svg>
