<svg width="14" height="14" viewBox="0 0 14 14" fill="none" xmlns="http://www.w3.org/2000/svg">
<mask id="mask0_13_1758" style="mask-type:luminance" maskUnits="userSpaceOnUse" x="0" y="0" width="14" height="14">
<path d="M0 0H14V14H0V0Z" fill="white"/>
</mask>
<g mask="url(#mask0_13_1758)">
<path d="M12.8953 0.593347C12.2965 -0.00548086 11.3285 -0.00548086 10.7297 0.593347L9.90664 1.41365L12.5836 4.09062L13.4066 3.26757C14.0055 2.66874 14.0055 1.70076 13.4066 1.10194L12.8953 0.593347ZM4.71406 6.60897C4.54727 6.77576 4.41875 6.98084 4.34492 7.2078L3.53555 9.63592C3.45625 9.87108 3.51914 10.1309 3.69414 10.3086C3.86914 10.4863 4.12891 10.5465 4.3668 10.4672L6.79492 9.6578C7.01914 9.58397 7.22422 9.45545 7.39375 9.28866L11.9684 4.71131L9.28867 2.03162L4.71406 6.60897ZM2.625 1.74998C1.17578 1.74998 0 2.92576 0 4.37498V11.375C0 12.8242 1.17578 14 2.625 14H9.625C11.0742 14 12.25 12.8242 12.25 11.375V8.74998C12.25 8.266 11.859 7.87498 11.375 7.87498C10.891 7.87498 10.5 8.266 10.5 8.74998V11.375C10.5 11.859 10.109 12.25 9.625 12.25H2.625C2.14102 12.25 1.75 11.859 1.75 11.375V4.37498C1.75 3.891 2.14102 3.49998 2.625 3.49998H5.25C5.73398 3.49998 6.125 3.10897 6.125 2.62498C6.125 2.141 5.73398 1.74998 5.25 1.74998H2.625Z" fill="#1D4ED8"/>
</g>
</svg>
