<svg width="77" height="72" viewBox="0 0 77 72" fill="none" xmlns="http://www.w3.org/2000/svg">
<path d="M0 16C0 7.1634 7.1634 0 16 0H61C69.8366 0 77 7.1634 77 16V56C77 64.8366 69.8366 72 61 72H16C7.1634 72 0 64.8366 0 56V16Z" fill="url(#paint0_linear_4_1142)"/>
<mask id="mask0_4_1142" style="mask-type:luminance" maskUnits="userSpaceOnUse" x="16" y="16" width="45" height="37">
<path d="M16 16.5H61V52.5H16V16.5Z" fill="white"/>
</mask>
<g mask="url(#mask0_4_1142)">
<path d="M43.6188 16.5844C42.4234 16.2398 41.1789 16.9359 40.8344 18.1312L31.8344 49.6312C31.4899 50.8266 32.1859 52.0711 33.3813 52.4156C34.5766 52.7601 35.8211 52.0641 36.1656 50.8687L45.1656 19.3687C45.5102 18.1734 44.8141 16.9289 43.6188 16.5844ZM49.2859 25.0289C48.407 25.9078 48.407 27.3351 49.2859 28.2141L55.5649 34.5L49.2789 40.7859C48.4 41.6648 48.4 43.0922 49.2789 43.9711C50.1578 44.85 51.5852 44.85 52.4641 43.9711L60.3391 36.0961C61.218 35.2172 61.218 33.7898 60.3391 32.9109L52.4641 25.0359C51.5852 24.157 50.1578 24.157 49.2789 25.0359L49.2859 25.0289ZM27.7211 25.0289C26.8422 24.15 25.4149 24.15 24.5359 25.0289L16.6609 32.9039C15.782 33.7828 15.782 35.2101 16.6609 36.0891L24.5359 43.9641C25.4149 44.843 26.8422 44.843 27.7211 43.9641C28.6 43.0851 28.6 41.6578 27.7211 40.7789L21.4352 34.5L27.7211 28.2141C28.6 27.3351 28.6 25.9078 27.7211 25.0289Z" fill="white"/>
</g>
<defs>
<linearGradient id="paint0_linear_4_1142" x1="-27.2236" y1="25.4558" x2="23.5735" y2="79.7806" gradientUnits="userSpaceOnUse">
<stop stop-color="#3B82F6"/>
<stop offset="1" stop-color="#4F46E5"/>
</linearGradient>
</defs>
</svg>
