<svg width="16" height="16" viewBox="0 0 16 16" fill="none" xmlns="http://www.w3.org/2000/svg">
<g clip-path="url(#clip0_1_759)">
<path d="M9.59375 1.08752C9.23438 1.24689 9 1.60627 9 2.00002V4.00002H5.5C2.4625 4.00002 0 6.46252 0 9.50002C0 13.0406 2.54687 14.6219 3.13125 14.9406C3.20937 14.9844 3.29688 15 3.38438 15C3.725 15 4 14.7219 4 14.3844C4 14.15 3.86562 13.9344 3.69375 13.775C3.4 13.4969 3 12.95 3 12C3 10.3438 4.34375 9.00002 6 9.00002H9V11C9 11.3938 9.23125 11.7531 9.59375 11.9125C9.95625 12.0719 10.375 12.0063 10.6687 11.7438L15.6687 7.24377C15.8781 7.05314 16 6.78439 16 6.50002C16 6.21564 15.8812 5.94689 15.6687 5.75627L10.6687 1.25627C10.375 0.990644 9.95312 0.925019 9.59375 1.08752Z" fill="#1E293B"/>
</g>
<defs>
<clipPath id="clip0_1_759">
<path d="M0 0H16V16H0V0Z" fill="white"/>
</clipPath>
</defs>
</svg>
