<svg width="14" height="12" viewBox="0 0 14 12" fill="none" xmlns="http://www.w3.org/2000/svg">
<g clip-path="url(#clip0_1_347)">
<path d="M6.7499 0.75C4.85615 0.75 3.33975 1.6125 2.23584 2.63906C1.13896 3.65625 0.405371 4.875 0.0584961 5.71172C-0.0188477 5.89687 -0.0188477 6.10312 0.0584961 6.28828C0.405371 7.125 1.13896 8.34375 2.23584 9.36094C3.33975 10.3875 4.85615 11.25 6.7499 11.25C8.64365 11.25 10.1601 10.3875 11.264 9.36094C12.3608 8.34141 13.0944 7.125 13.4437 6.28828C13.521 6.10312 13.521 5.89687 13.4437 5.71172C13.0944 4.875 12.3608 3.65625 11.264 2.63906C10.1601 1.6125 8.64365 0.75 6.7499 0.75ZM3.3749 6C3.3749 5.10489 3.73048 4.24645 4.36342 3.61351C4.99635 2.98058 5.8548 2.625 6.7499 2.625C7.64501 2.625 8.50345 2.98058 9.13639 3.61351C9.76932 4.24645 10.1249 5.10489 10.1249 6C10.1249 6.89511 9.76932 7.75355 9.13639 8.38649C8.50345 9.01942 7.64501 9.375 6.7499 9.375C5.8548 9.375 4.99635 9.01942 4.36342 8.38649C3.73048 7.75355 3.3749 6.89511 3.3749 6ZM6.7499 4.5C6.7499 5.32734 6.07725 6 5.2499 6C5.0835 6 4.92412 5.97187 4.77412 5.92266C4.64521 5.88047 4.49521 5.96016 4.4999 6.09609C4.50693 6.25781 4.53037 6.41953 4.5749 6.58125C4.896 7.78125 6.13115 8.49375 7.33115 8.17266C8.53115 7.85156 9.24365 6.61641 8.92256 5.41641C8.6624 4.44375 7.80225 3.78984 6.846 3.75C6.71006 3.74531 6.63037 3.89297 6.67256 4.02422C6.72178 4.17422 6.7499 4.33359 6.7499 4.5Z" fill="#3B82F6"/>
</g>
<defs>
<clipPath id="clip0_1_347">
<path d="M0 0H13.5V12H0V0Z" fill="white"/>
</clipPath>
</defs>
</svg>
